<mxfile host="app.diagrams.net" modified="2023-10-17T08:05:43.648Z" agent="Mozilla/5.0 (X11; Linux x86_64) AppleWebKit/537.36 (KHTML, like Gecko) Chrome/117.0.0.0 Safari/537.36" etag="_Fyv8J-A1z5f4MVSpZbY" version="22.0.4" type="device">
  <diagram name="Pagina-1" id="lVRO8FN0cl4bYZhDUq4U">
    <mxGraphModel dx="2193" dy="1878" grid="1" gridSize="10" guides="1" tooltips="1" connect="1" arrows="1" fold="1" page="1" pageScale="1" pageWidth="827" pageHeight="1169" math="0" shadow="0">
      <root>
        <mxCell id="0" />
        <mxCell id="1" parent="0" />
        <mxCell id="L7NKFnQ29NJkpKg581X9-1" value="Utente Anonimo&lt;br&gt;" style="shape=umlActor;verticalLabelPosition=bottom;verticalAlign=top;html=1;outlineConnect=0;" vertex="1" parent="1">
          <mxGeometry x="100" y="160" width="30" height="60" as="geometry" />
        </mxCell>
        <mxCell id="L7NKFnQ29NJkpKg581X9-8" style="edgeStyle=orthogonalEdgeStyle;rounded=0;orthogonalLoop=1;jettySize=auto;html=1;exitX=1;exitY=0.5;exitDx=0;exitDy=0;entryX=0;entryY=0.5;entryDx=0;entryDy=0;dashed=1;" edge="1" parent="1" source="L7NKFnQ29NJkpKg581X9-2" target="L7NKFnQ29NJkpKg581X9-5">
          <mxGeometry relative="1" as="geometry" />
        </mxCell>
        <mxCell id="L7NKFnQ29NJkpKg581X9-9" style="edgeStyle=orthogonalEdgeStyle;rounded=0;orthogonalLoop=1;jettySize=auto;html=1;exitX=1;exitY=0.5;exitDx=0;exitDy=0;entryX=0;entryY=0.5;entryDx=0;entryDy=0;dashed=1;" edge="1" parent="1" source="L7NKFnQ29NJkpKg581X9-2" target="L7NKFnQ29NJkpKg581X9-6">
          <mxGeometry relative="1" as="geometry" />
        </mxCell>
        <mxCell id="L7NKFnQ29NJkpKg581X9-2" value="Login" style="ellipse;whiteSpace=wrap;html=1;" vertex="1" parent="1">
          <mxGeometry x="371" y="140" width="120" height="80" as="geometry" />
        </mxCell>
        <mxCell id="L7NKFnQ29NJkpKg581X9-5" value="Inserire email" style="ellipse;whiteSpace=wrap;html=1;" vertex="1" parent="1">
          <mxGeometry x="566" y="47" width="120" height="80" as="geometry" />
        </mxCell>
        <mxCell id="L7NKFnQ29NJkpKg581X9-6" value="Inserire password" style="ellipse;whiteSpace=wrap;html=1;" vertex="1" parent="1">
          <mxGeometry x="571" y="140" width="120" height="80" as="geometry" />
        </mxCell>
        <mxCell id="L7NKFnQ29NJkpKg581X9-10" value="&amp;lt;include&amp;gt;" style="text;html=1;strokeColor=none;fillColor=none;align=center;verticalAlign=middle;whiteSpace=wrap;rounded=0;" vertex="1" parent="1">
          <mxGeometry x="501" y="57" width="60" height="30" as="geometry" />
        </mxCell>
        <mxCell id="L7NKFnQ29NJkpKg581X9-11" value="&amp;lt;include&amp;gt;" style="text;html=1;strokeColor=none;fillColor=none;align=center;verticalAlign=middle;whiteSpace=wrap;rounded=0;" vertex="1" parent="1">
          <mxGeometry x="511" y="187" width="60" height="30" as="geometry" />
        </mxCell>
        <mxCell id="L7NKFnQ29NJkpKg581X9-16" value="" style="endArrow=none;html=1;rounded=0;entryX=0;entryY=0.5;entryDx=0;entryDy=0;" edge="1" parent="1" target="L7NKFnQ29NJkpKg581X9-2">
          <mxGeometry width="50" height="50" relative="1" as="geometry">
            <mxPoint x="140" y="180" as="sourcePoint" />
            <mxPoint x="450" y="160" as="targetPoint" />
          </mxGeometry>
        </mxCell>
        <mxCell id="L7NKFnQ29NJkpKg581X9-20" style="edgeStyle=orthogonalEdgeStyle;rounded=0;orthogonalLoop=1;jettySize=auto;html=1;exitX=0;exitY=0.5;exitDx=0;exitDy=0;entryX=1;entryY=1;entryDx=0;entryDy=0;dashed=1;" edge="1" parent="1" source="L7NKFnQ29NJkpKg581X9-18" target="L7NKFnQ29NJkpKg581X9-2">
          <mxGeometry relative="1" as="geometry" />
        </mxCell>
        <mxCell id="L7NKFnQ29NJkpKg581X9-18" value="Recupero password" style="ellipse;whiteSpace=wrap;html=1;" vertex="1" parent="1">
          <mxGeometry x="571" y="227" width="120" height="80" as="geometry" />
        </mxCell>
        <mxCell id="L7NKFnQ29NJkpKg581X9-21" value="&amp;lt;extend&amp;gt;" style="text;html=1;align=center;verticalAlign=middle;resizable=0;points=[];autosize=1;strokeColor=none;fillColor=none;" vertex="1" parent="1">
          <mxGeometry x="506" y="270" width="70" height="30" as="geometry" />
        </mxCell>
        <mxCell id="L7NKFnQ29NJkpKg581X9-22" value="Lista prodotti" style="ellipse;whiteSpace=wrap;html=1;" vertex="1" parent="1">
          <mxGeometry x="55" width="120" height="80" as="geometry" />
        </mxCell>
        <mxCell id="L7NKFnQ29NJkpKg581X9-31" style="edgeStyle=orthogonalEdgeStyle;rounded=0;orthogonalLoop=1;jettySize=auto;html=1;exitX=0.5;exitY=0;exitDx=0;exitDy=0;endArrow=none;endFill=0;" edge="1" parent="1" source="L7NKFnQ29NJkpKg581X9-23">
          <mxGeometry relative="1" as="geometry">
            <mxPoint x="130" y="180" as="targetPoint" />
            <Array as="points">
              <mxPoint x="160" y="270" />
              <mxPoint x="300" y="270" />
              <mxPoint x="300" y="180" />
            </Array>
          </mxGeometry>
        </mxCell>
        <mxCell id="L7NKFnQ29NJkpKg581X9-23" value="Lista sconti" style="ellipse;whiteSpace=wrap;html=1;" vertex="1" parent="1">
          <mxGeometry x="100" y="310" width="120" height="80" as="geometry" />
        </mxCell>
        <mxCell id="L7NKFnQ29NJkpKg581X9-30" style="edgeStyle=orthogonalEdgeStyle;rounded=0;orthogonalLoop=1;jettySize=auto;html=1;exitX=0.5;exitY=0;exitDx=0;exitDy=0;entryX=1;entryY=0.3333333333333333;entryDx=0;entryDy=0;entryPerimeter=0;endArrow=none;endFill=0;" edge="1" parent="1" source="L7NKFnQ29NJkpKg581X9-24" target="L7NKFnQ29NJkpKg581X9-1">
          <mxGeometry relative="1" as="geometry">
            <mxPoint x="180" y="190" as="targetPoint" />
            <Array as="points">
              <mxPoint x="420" y="270" />
              <mxPoint x="300" y="270" />
              <mxPoint x="300" y="180" />
            </Array>
          </mxGeometry>
        </mxCell>
        <mxCell id="L7NKFnQ29NJkpKg581X9-24" value="Lista negozi" style="ellipse;whiteSpace=wrap;html=1;" vertex="1" parent="1">
          <mxGeometry x="360" y="310" width="120" height="80" as="geometry" />
        </mxCell>
        <mxCell id="L7NKFnQ29NJkpKg581X9-32" style="edgeStyle=orthogonalEdgeStyle;rounded=0;orthogonalLoop=1;jettySize=auto;html=1;exitX=0.5;exitY=1;exitDx=0;exitDy=0;entryX=0.5;entryY=0;entryDx=0;entryDy=0;entryPerimeter=0;endArrow=none;endFill=0;" edge="1" parent="1" source="L7NKFnQ29NJkpKg581X9-22" target="L7NKFnQ29NJkpKg581X9-1">
          <mxGeometry relative="1" as="geometry" />
        </mxCell>
        <mxCell id="L7NKFnQ29NJkpKg581X9-46" style="edgeStyle=orthogonalEdgeStyle;rounded=0;orthogonalLoop=1;jettySize=auto;html=1;exitX=0.5;exitY=1;exitDx=0;exitDy=0;dashed=1;" edge="1" parent="1" source="L7NKFnQ29NJkpKg581X9-34" target="L7NKFnQ29NJkpKg581X9-40">
          <mxGeometry relative="1" as="geometry" />
        </mxCell>
        <mxCell id="L7NKFnQ29NJkpKg581X9-47" style="edgeStyle=orthogonalEdgeStyle;rounded=0;orthogonalLoop=1;jettySize=auto;html=1;exitX=0.5;exitY=1;exitDx=0;exitDy=0;dashed=1;" edge="1" parent="1" source="L7NKFnQ29NJkpKg581X9-34" target="L7NKFnQ29NJkpKg581X9-39">
          <mxGeometry relative="1" as="geometry" />
        </mxCell>
        <mxCell id="L7NKFnQ29NJkpKg581X9-48" style="edgeStyle=orthogonalEdgeStyle;rounded=0;orthogonalLoop=1;jettySize=auto;html=1;exitX=0.5;exitY=1;exitDx=0;exitDy=0;dashed=1;" edge="1" parent="1" source="L7NKFnQ29NJkpKg581X9-34" target="L7NKFnQ29NJkpKg581X9-42">
          <mxGeometry relative="1" as="geometry" />
        </mxCell>
        <mxCell id="L7NKFnQ29NJkpKg581X9-49" style="edgeStyle=orthogonalEdgeStyle;rounded=0;orthogonalLoop=1;jettySize=auto;html=1;exitX=0;exitY=0.5;exitDx=0;exitDy=0;dashed=1;" edge="1" parent="1" source="L7NKFnQ29NJkpKg581X9-34" target="L7NKFnQ29NJkpKg581X9-41">
          <mxGeometry relative="1" as="geometry" />
        </mxCell>
        <mxCell id="L7NKFnQ29NJkpKg581X9-51" style="edgeStyle=orthogonalEdgeStyle;rounded=0;orthogonalLoop=1;jettySize=auto;html=1;exitX=0.5;exitY=0;exitDx=0;exitDy=0;dashed=1;" edge="1" parent="1" source="L7NKFnQ29NJkpKg581X9-34" target="L7NKFnQ29NJkpKg581X9-37">
          <mxGeometry relative="1" as="geometry" />
        </mxCell>
        <mxCell id="L7NKFnQ29NJkpKg581X9-52" style="edgeStyle=orthogonalEdgeStyle;rounded=0;orthogonalLoop=1;jettySize=auto;html=1;exitX=0.5;exitY=0;exitDx=0;exitDy=0;dashed=1;" edge="1" parent="1" source="L7NKFnQ29NJkpKg581X9-34" target="L7NKFnQ29NJkpKg581X9-36">
          <mxGeometry relative="1" as="geometry" />
        </mxCell>
        <mxCell id="L7NKFnQ29NJkpKg581X9-34" value="Registrazione" style="ellipse;whiteSpace=wrap;html=1;" vertex="1" parent="1">
          <mxGeometry x="-180" y="140" width="120" height="80" as="geometry" />
        </mxCell>
        <mxCell id="L7NKFnQ29NJkpKg581X9-35" value="" style="endArrow=none;html=1;rounded=0;exitX=1;exitY=0.5;exitDx=0;exitDy=0;" edge="1" parent="1" source="L7NKFnQ29NJkpKg581X9-34">
          <mxGeometry width="50" height="50" relative="1" as="geometry">
            <mxPoint x="-140" y="270" as="sourcePoint" />
            <mxPoint x="90" y="180" as="targetPoint" />
          </mxGeometry>
        </mxCell>
        <mxCell id="L7NKFnQ29NJkpKg581X9-36" value="Inserire email" style="ellipse;whiteSpace=wrap;html=1;" vertex="1" parent="1">
          <mxGeometry x="-110" width="120" height="80" as="geometry" />
        </mxCell>
        <mxCell id="L7NKFnQ29NJkpKg581X9-37" value="Inserire password" style="ellipse;whiteSpace=wrap;html=1;" vertex="1" parent="1">
          <mxGeometry x="-240" width="120" height="80" as="geometry" />
        </mxCell>
        <mxCell id="L7NKFnQ29NJkpKg581X9-38" value="Inserire username" style="ellipse;whiteSpace=wrap;html=1;" vertex="1" parent="1">
          <mxGeometry x="-360" y="70" width="120" height="80" as="geometry" />
        </mxCell>
        <mxCell id="L7NKFnQ29NJkpKg581X9-39" value="Inserire nome" style="ellipse;whiteSpace=wrap;html=1;" vertex="1" parent="1">
          <mxGeometry x="-210" y="310" width="120" height="80" as="geometry" />
        </mxCell>
        <mxCell id="L7NKFnQ29NJkpKg581X9-40" value="Inserire cognome" style="ellipse;whiteSpace=wrap;html=1;" vertex="1" parent="1">
          <mxGeometry x="-80" y="310" width="120" height="80" as="geometry" />
        </mxCell>
        <mxCell id="L7NKFnQ29NJkpKg581X9-41" value="Inserire numero di telefono" style="ellipse;whiteSpace=wrap;html=1;" vertex="1" parent="1">
          <mxGeometry x="-360" y="170" width="120" height="80" as="geometry" />
        </mxCell>
        <mxCell id="L7NKFnQ29NJkpKg581X9-42" value="Inserire domicilio" style="ellipse;whiteSpace=wrap;html=1;" vertex="1" parent="1">
          <mxGeometry x="-340" y="310" width="120" height="80" as="geometry" />
        </mxCell>
        <mxCell id="L7NKFnQ29NJkpKg581X9-50" style="edgeStyle=orthogonalEdgeStyle;rounded=0;orthogonalLoop=1;jettySize=auto;html=1;exitX=0;exitY=0.5;exitDx=0;exitDy=0;dashed=1;entryX=1;entryY=0.5;entryDx=0;entryDy=0;" edge="1" parent="1" source="L7NKFnQ29NJkpKg581X9-34" target="L7NKFnQ29NJkpKg581X9-38">
          <mxGeometry relative="1" as="geometry">
            <mxPoint x="-170" y="190" as="sourcePoint" />
            <mxPoint x="-230" y="220" as="targetPoint" />
            <Array as="points">
              <mxPoint x="-210" y="180" />
              <mxPoint x="-210" y="110" />
            </Array>
          </mxGeometry>
        </mxCell>
        <mxCell id="L7NKFnQ29NJkpKg581X9-53" value="&amp;lt;include&amp;gt;" style="text;html=1;strokeColor=none;fillColor=none;align=center;verticalAlign=middle;whiteSpace=wrap;rounded=0;" vertex="1" parent="1">
          <mxGeometry x="-50" y="80" width="60" height="30" as="geometry" />
        </mxCell>
        <mxCell id="L7NKFnQ29NJkpKg581X9-54" value="&amp;lt;include&amp;gt;" style="text;html=1;strokeColor=none;fillColor=none;align=center;verticalAlign=middle;whiteSpace=wrap;rounded=0;" vertex="1" parent="1">
          <mxGeometry x="-170" y="80" width="60" height="30" as="geometry" />
        </mxCell>
        <mxCell id="L7NKFnQ29NJkpKg581X9-55" value="&amp;lt;include&amp;gt;" style="text;html=1;strokeColor=none;fillColor=none;align=center;verticalAlign=middle;whiteSpace=wrap;rounded=0;" vertex="1" parent="1">
          <mxGeometry x="-240" y="80" width="60" height="30" as="geometry" />
        </mxCell>
        <mxCell id="L7NKFnQ29NJkpKg581X9-56" value="&amp;lt;include&amp;gt;" style="text;html=1;strokeColor=none;fillColor=none;align=center;verticalAlign=middle;whiteSpace=wrap;rounded=0;" vertex="1" parent="1">
          <mxGeometry x="-240" y="210" width="60" height="30" as="geometry" />
        </mxCell>
        <mxCell id="L7NKFnQ29NJkpKg581X9-57" value="&amp;lt;include&amp;gt;" style="text;html=1;strokeColor=none;fillColor=none;align=center;verticalAlign=middle;whiteSpace=wrap;rounded=0;" vertex="1" parent="1">
          <mxGeometry x="-280" y="270" width="60" height="30" as="geometry" />
        </mxCell>
        <mxCell id="L7NKFnQ29NJkpKg581X9-58" value="&amp;lt;include&amp;gt;" style="text;html=1;strokeColor=none;fillColor=none;align=center;verticalAlign=middle;whiteSpace=wrap;rounded=0;" vertex="1" parent="1">
          <mxGeometry x="-150" y="270" width="60" height="30" as="geometry" />
        </mxCell>
        <mxCell id="L7NKFnQ29NJkpKg581X9-59" value="&amp;lt;include&amp;gt;" style="text;html=1;strokeColor=none;fillColor=none;align=center;verticalAlign=middle;whiteSpace=wrap;rounded=0;" vertex="1" parent="1">
          <mxGeometry x="-20" y="270" width="60" height="30" as="geometry" />
        </mxCell>
        <mxCell id="L7NKFnQ29NJkpKg581X9-63" style="edgeStyle=orthogonalEdgeStyle;rounded=0;orthogonalLoop=1;jettySize=auto;html=1;exitX=0.5;exitY=1;exitDx=0;exitDy=0;dashed=1;" edge="1" parent="1" source="L7NKFnQ29NJkpKg581X9-60" target="L7NKFnQ29NJkpKg581X9-22">
          <mxGeometry relative="1" as="geometry" />
        </mxCell>
        <mxCell id="L7NKFnQ29NJkpKg581X9-60" value="Ricerca per nome" style="ellipse;whiteSpace=wrap;html=1;" vertex="1" parent="1">
          <mxGeometry x="-70" y="-140" width="120" height="80" as="geometry" />
        </mxCell>
        <mxCell id="L7NKFnQ29NJkpKg581X9-64" style="edgeStyle=orthogonalEdgeStyle;rounded=0;orthogonalLoop=1;jettySize=auto;html=1;exitX=0.5;exitY=1;exitDx=0;exitDy=0;dashed=1;" edge="1" parent="1" source="L7NKFnQ29NJkpKg581X9-61" target="L7NKFnQ29NJkpKg581X9-22">
          <mxGeometry relative="1" as="geometry" />
        </mxCell>
        <mxCell id="L7NKFnQ29NJkpKg581X9-61" value="Selezione filtri di ricerca" style="ellipse;whiteSpace=wrap;html=1;" vertex="1" parent="1">
          <mxGeometry x="55" y="-140" width="120" height="80" as="geometry" />
        </mxCell>
        <mxCell id="L7NKFnQ29NJkpKg581X9-65" style="edgeStyle=orthogonalEdgeStyle;rounded=0;orthogonalLoop=1;jettySize=auto;html=1;exitX=0.5;exitY=1;exitDx=0;exitDy=0;entryX=0.5;entryY=0;entryDx=0;entryDy=0;dashed=1;" edge="1" parent="1" source="L7NKFnQ29NJkpKg581X9-62" target="L7NKFnQ29NJkpKg581X9-22">
          <mxGeometry relative="1" as="geometry" />
        </mxCell>
        <mxCell id="L7NKFnQ29NJkpKg581X9-62" value="Selezione metodo di ordinamento" style="ellipse;whiteSpace=wrap;html=1;" vertex="1" parent="1">
          <mxGeometry x="180" y="-140" width="120" height="80" as="geometry" />
        </mxCell>
        <mxCell id="L7NKFnQ29NJkpKg581X9-66" value="&amp;lt;extend&amp;gt;" style="text;html=1;align=center;verticalAlign=middle;resizable=0;points=[];autosize=1;strokeColor=none;fillColor=none;" vertex="1" parent="1">
          <mxGeometry x="240" y="-60" width="70" height="30" as="geometry" />
        </mxCell>
        <mxCell id="L7NKFnQ29NJkpKg581X9-67" value="&amp;lt;extend&amp;gt;" style="text;html=1;align=center;verticalAlign=middle;resizable=0;points=[];autosize=1;strokeColor=none;fillColor=none;" vertex="1" parent="1">
          <mxGeometry x="120" y="-60" width="70" height="30" as="geometry" />
        </mxCell>
        <mxCell id="L7NKFnQ29NJkpKg581X9-68" value="&amp;lt;extend&amp;gt;" style="text;html=1;align=center;verticalAlign=middle;resizable=0;points=[];autosize=1;strokeColor=none;fillColor=none;" vertex="1" parent="1">
          <mxGeometry x="-15" y="-60" width="70" height="30" as="geometry" />
        </mxCell>
        <mxCell id="L7NKFnQ29NJkpKg581X9-82" style="edgeStyle=orthogonalEdgeStyle;rounded=0;orthogonalLoop=1;jettySize=auto;html=1;exitX=0.5;exitY=0;exitDx=0;exitDy=0;entryX=0.5;entryY=1;entryDx=0;entryDy=0;dashed=1;" edge="1" parent="1" source="L7NKFnQ29NJkpKg581X9-69" target="L7NKFnQ29NJkpKg581X9-23">
          <mxGeometry relative="1" as="geometry" />
        </mxCell>
        <mxCell id="L7NKFnQ29NJkpKg581X9-69" value="Ricerca per nome" style="ellipse;whiteSpace=wrap;html=1;" vertex="1" parent="1">
          <mxGeometry x="161" y="425" width="120" height="80" as="geometry" />
        </mxCell>
        <mxCell id="L7NKFnQ29NJkpKg581X9-75" style="edgeStyle=orthogonalEdgeStyle;rounded=0;orthogonalLoop=1;jettySize=auto;html=1;exitX=0.5;exitY=0;exitDx=0;exitDy=0;dashed=1;" edge="1" parent="1" source="L7NKFnQ29NJkpKg581X9-70">
          <mxGeometry relative="1" as="geometry">
            <mxPoint x="420" y="390" as="targetPoint" />
          </mxGeometry>
        </mxCell>
        <mxCell id="L7NKFnQ29NJkpKg581X9-70" value="Selezione metodo di ordinamento" style="ellipse;whiteSpace=wrap;html=1;" vertex="1" parent="1">
          <mxGeometry x="294" y="425" width="120" height="80" as="geometry" />
        </mxCell>
        <mxCell id="L7NKFnQ29NJkpKg581X9-73" style="edgeStyle=orthogonalEdgeStyle;rounded=0;orthogonalLoop=1;jettySize=auto;html=1;exitX=0.5;exitY=0;exitDx=0;exitDy=0;entryX=0.5;entryY=1;entryDx=0;entryDy=0;dashed=1;" edge="1" parent="1" source="L7NKFnQ29NJkpKg581X9-71" target="L7NKFnQ29NJkpKg581X9-24">
          <mxGeometry relative="1" as="geometry" />
        </mxCell>
        <mxCell id="L7NKFnQ29NJkpKg581X9-71" value="Selezione filtri di ricerca" style="ellipse;whiteSpace=wrap;html=1;" vertex="1" parent="1">
          <mxGeometry x="430" y="425" width="120" height="80" as="geometry" />
        </mxCell>
        <mxCell id="L7NKFnQ29NJkpKg581X9-76" style="edgeStyle=orthogonalEdgeStyle;rounded=0;orthogonalLoop=1;jettySize=auto;html=1;exitX=0.5;exitY=0;exitDx=0;exitDy=0;dashed=1;" edge="1" parent="1" source="L7NKFnQ29NJkpKg581X9-72">
          <mxGeometry relative="1" as="geometry">
            <mxPoint x="420" y="390" as="targetPoint" />
          </mxGeometry>
        </mxCell>
        <mxCell id="L7NKFnQ29NJkpKg581X9-72" value="Ricerca per nome" style="ellipse;whiteSpace=wrap;html=1;" vertex="1" parent="1">
          <mxGeometry x="360" y="530" width="120" height="80" as="geometry" />
        </mxCell>
        <mxCell id="L7NKFnQ29NJkpKg581X9-77" value="&amp;lt;extend&amp;gt;" style="text;html=1;align=center;verticalAlign=middle;resizable=0;points=[];autosize=1;strokeColor=none;fillColor=none;" vertex="1" parent="1">
          <mxGeometry x="414" y="500" width="70" height="30" as="geometry" />
        </mxCell>
        <mxCell id="L7NKFnQ29NJkpKg581X9-78" value="&amp;lt;extend&amp;gt;" style="text;html=1;align=center;verticalAlign=middle;resizable=0;points=[];autosize=1;strokeColor=none;fillColor=none;" vertex="1" parent="1">
          <mxGeometry x="490" y="390" width="70" height="30" as="geometry" />
        </mxCell>
        <mxCell id="L7NKFnQ29NJkpKg581X9-79" value="&amp;lt;extend&amp;gt;" style="text;html=1;align=center;verticalAlign=middle;resizable=0;points=[];autosize=1;strokeColor=none;fillColor=none;" vertex="1" parent="1">
          <mxGeometry x="280" y="395" width="70" height="30" as="geometry" />
        </mxCell>
        <mxCell id="L7NKFnQ29NJkpKg581X9-83" style="edgeStyle=orthogonalEdgeStyle;rounded=0;orthogonalLoop=1;jettySize=auto;html=1;exitX=0.5;exitY=0;exitDx=0;exitDy=0;dashed=1;" edge="1" parent="1" source="L7NKFnQ29NJkpKg581X9-81">
          <mxGeometry relative="1" as="geometry">
            <mxPoint x="160" y="390" as="targetPoint" />
          </mxGeometry>
        </mxCell>
        <mxCell id="L7NKFnQ29NJkpKg581X9-81" value="Selezione filtri di ricerca" style="ellipse;whiteSpace=wrap;html=1;" vertex="1" parent="1">
          <mxGeometry x="39" y="425" width="120" height="80" as="geometry" />
        </mxCell>
        <mxCell id="L7NKFnQ29NJkpKg581X9-84" value="&amp;lt;extend&amp;gt;" style="text;html=1;align=center;verticalAlign=middle;resizable=0;points=[];autosize=1;strokeColor=none;fillColor=none;" vertex="1" parent="1">
          <mxGeometry x="200" y="380" width="70" height="30" as="geometry" />
        </mxCell>
        <mxCell id="L7NKFnQ29NJkpKg581X9-85" value="&amp;lt;extend&amp;gt;" style="text;html=1;align=center;verticalAlign=middle;resizable=0;points=[];autosize=1;strokeColor=none;fillColor=none;" vertex="1" parent="1">
          <mxGeometry x="64" y="380" width="70" height="30" as="geometry" />
        </mxCell>
        <mxCell id="L7NKFnQ29NJkpKg581X9-90" style="edgeStyle=orthogonalEdgeStyle;rounded=0;orthogonalLoop=1;jettySize=auto;html=1;exitX=0.5;exitY=1;exitDx=0;exitDy=0;endArrow=none;endFill=0;" edge="1" parent="1" source="L7NKFnQ29NJkpKg581X9-86">
          <mxGeometry relative="1" as="geometry">
            <mxPoint x="259.8620689655172" y="180.00000000000023" as="targetPoint" />
          </mxGeometry>
        </mxCell>
        <mxCell id="L7NKFnQ29NJkpKg581X9-86" value="Lista volantini" style="ellipse;whiteSpace=wrap;html=1;" vertex="1" parent="1">
          <mxGeometry x="200" y="-10" width="120" height="80" as="geometry" />
        </mxCell>
        <mxCell id="L7NKFnQ29NJkpKg581X9-92" style="edgeStyle=orthogonalEdgeStyle;rounded=0;orthogonalLoop=1;jettySize=auto;html=1;exitX=0;exitY=0.5;exitDx=0;exitDy=0;entryX=1;entryY=0.5;entryDx=0;entryDy=0;dashed=1;" edge="1" parent="1" source="L7NKFnQ29NJkpKg581X9-89" target="L7NKFnQ29NJkpKg581X9-86">
          <mxGeometry relative="1" as="geometry" />
        </mxCell>
        <mxCell id="L7NKFnQ29NJkpKg581X9-89" value="Ricerca per nome" style="ellipse;whiteSpace=wrap;html=1;" vertex="1" parent="1">
          <mxGeometry x="364" y="-10" width="120" height="80" as="geometry" />
        </mxCell>
        <mxCell id="L7NKFnQ29NJkpKg581X9-93" value="&amp;lt;extend&amp;gt;" style="text;html=1;align=center;verticalAlign=middle;resizable=0;points=[];autosize=1;strokeColor=none;fillColor=none;" vertex="1" parent="1">
          <mxGeometry x="310" y="-10" width="70" height="30" as="geometry" />
        </mxCell>
      </root>
    </mxGraphModel>
  </diagram>
</mxfile>
